<?xml version="1.0" encoding="UTF-8"?>
<!-- Generated by Pixelmator Pro 3.6.16 -->
<svg width="1844" height="742" viewBox="0 0 1844 742" xmlns="http://www.w3.org/2000/svg">
    <path id="AI-Recruitment" fill="#ffffff" fill-rule="evenodd" stroke="none" d="M 1709.52002 448.925995 C 1704.526611 448.925995 1699.99707 448.390991 1695.93103 447.320984 C 1691.86499 446.251007 1688.369629 444.360687 1685.444946 441.649994 C 1682.520264 438.939331 1680.237671 435.408356 1678.597046 431.057007 C 1676.956299 426.705627 1676.135986 421.177368 1676.135986 414.471985 L 1676.135986 360.115997 L 1662.439941 360.115997 L 1662.439941 332.296021 L 1676.135986 332.296021 L 1676.135986 302.977997 L 1708.66394 302.977997 L 1708.66394 332.296021 L 1735.628052 332.296021 L 1735.628052 360.115997 L 1708.66394 360.115997 L 1708.66394 409.122009 C 1708.66394 416.54071 1712.159302 420.25 1719.150024 420.25 C 1724.856689 420.25 1730.206665 418.894684 1735.199951 416.18399 L 1735.199951 442.291992 C 1731.776001 444.289337 1727.995361 445.894318 1723.858032 447.106995 C 1719.720703 448.319672 1714.941406 448.925995 1709.52002 448.925995 Z M 1537.463989 332.296021 L 1569.991943 332.296021 L 1569.991943 348.559998 C 1571.84668 346.134644 1573.879639 343.816345 1576.090942 341.60498 C 1578.302368 339.393677 1580.763306 337.432007 1583.473999 335.720001 C 1586.184692 334.007996 1589.180664 332.652649 1592.462036 331.653992 C 1595.743408 330.655334 1599.452637 330.156006 1603.589966 330.156006 C 1616.002075 330.156006 1625.596313 333.936646 1632.373047 341.497986 C 1639.149658 349.059387 1642.537964 359.473938 1642.537964 372.742004 L 1642.537964 447 L 1610.01001 447 L 1610.01001 383.014008 C 1610.01001 375.309967 1608.297974 369.496338 1604.874023 365.572998 C 1601.449951 361.649658 1596.599365 359.687988 1590.322021 359.687988 C 1584.044678 359.687988 1579.087036 361.649658 1575.448975 365.572998 C 1571.811035 369.496338 1569.991943 375.309967 1569.991943 383.014008 L 1569.991943 447 L 1537.463989 447 Z M 1481.609985 380.660004 C 1480.611328 373.383972 1478.043335 367.499023 1473.906006 363.005005 C 1469.768677 358.510986 1464.276001 356.264008 1457.427979 356.264008 C 1450.579956 356.264008 1445.051636 358.475311 1440.843018 362.89801 C 1436.634277 367.320679 1433.888062 373.241302 1432.604004 380.660004 Z M 1460.637939 449.567993 C 1452.078003 449.567993 1444.12439 448.141357 1436.776978 445.287994 C 1429.429688 442.434662 1423.081055 438.368683 1417.730957 433.089996 C 1412.380981 427.81131 1408.208008 421.569702 1405.212036 414.36499 C 1402.215942 407.160278 1400.718018 399.135376 1400.718018 390.290009 L 1400.718018 389.862 C 1400.718018 381.72995 1402.109009 374.026031 1404.890991 366.75 C 1407.672974 359.473969 1411.560669 353.125366 1416.553955 347.703979 C 1421.547363 342.282654 1427.503662 338.002686 1434.422974 334.864014 C 1441.342407 331.725311 1449.01062 330.156006 1457.427979 330.156006 C 1466.986694 330.156006 1475.261353 331.867981 1482.251953 335.291992 C 1489.242676 338.716003 1495.056274 343.316956 1499.692993 349.095001 C 1504.329712 354.873047 1507.753662 361.506958 1509.964966 368.997009 C 1512.176392 376.48703 1513.281982 384.297974 1513.281982 392.429993 C 1513.281982 393.713989 1513.246338 395.069336 1513.175049 396.496002 C 1513.103638 397.922668 1512.996704 399.420654 1512.854004 400.98999 L 1433.031982 400.98999 C 1434.601318 408.408691 1437.846924 414.008301 1442.769043 417.789001 C 1447.69104 421.569702 1453.789917 423.459991 1461.06604 423.459991 C 1466.487305 423.459991 1471.338013 422.532684 1475.618042 420.678009 C 1479.898071 418.823334 1484.320679 415.827362 1488.885986 411.690002 L 1507.504028 428.167999 C 1502.082642 434.873352 1495.52002 440.116302 1487.81604 443.897003 C 1480.111938 447.677673 1471.052734 449.567993 1460.637939 449.567993 Z M 1202.982056 332.296021 L 1235.51001 332.296021 L 1235.51001 348.559998 C 1237.364624 346.134644 1239.397705 343.816345 1241.609009 341.60498 C 1243.820313 339.393677 1246.281372 337.432007 1248.991943 335.720001 C 1251.702637 334.007996 1254.734375 332.652649 1258.087036 331.653992 C 1261.439697 330.655334 1265.184692 330.156006 1269.322021 330.156006 C 1276.883423 330.156006 1283.410278 331.725311 1288.902954 334.864014 C 1294.395752 338.002686 1298.640015 342.496643 1301.635986 348.346008 C 1306.629395 342.353973 1312.193359 337.824341 1318.328003 334.757019 C 1324.462646 331.689636 1331.453247 330.156006 1339.300049 330.156006 C 1351.426758 330.156006 1360.91394 333.722626 1367.761963 340.856018 C 1374.609985 347.98938 1378.034058 358.475281 1378.034058 372.313995 L 1378.034058 447 L 1345.505981 447 L 1345.505981 383.014008 C 1345.505981 375.309967 1343.865356 369.496338 1340.583984 365.572998 C 1337.302612 361.649658 1332.594727 359.687988 1326.459961 359.687988 C 1320.325317 359.687988 1315.510376 361.649658 1312.015015 365.572998 C 1308.519653 369.496338 1306.771973 375.309967 1306.771973 383.014008 L 1306.771973 447 L 1274.244019 447 L 1274.244019 383.014008 C 1274.244019 375.309967 1272.603394 369.496338 1269.322021 365.572998 C 1266.040649 361.649658 1261.332642 359.687988 1255.197998 359.687988 C 1249.063354 359.687988 1244.248291 361.649658 1240.753052 365.572998 C 1237.25769 369.496338 1235.51001 375.309967 1235.51001 383.014008 L 1235.51001 447 L 1202.982056 447 Z M 1152.906006 448.925995 C 1147.912598 448.925995 1143.383057 448.390991 1139.317017 447.320984 C 1135.250977 446.251007 1131.755737 444.360687 1128.831055 441.649994 C 1125.906372 438.939331 1123.623657 435.408356 1121.983032 431.057007 C 1120.342285 426.705627 1119.521973 421.177368 1119.521973 414.471985 L 1119.521973 360.115997 L 1105.82605 360.115997 L 1105.82605 332.296021 L 1119.521973 332.296021 L 1119.521973 302.977997 L 1152.050049 302.977997 L 1152.050049 332.296021 L 1179.014038 332.296021 L 1179.014038 360.115997 L 1152.050049 360.115997 L 1152.050049 409.122009 C 1152.050049 416.54071 1155.545288 420.25 1162.536011 420.25 C 1168.242676 420.25 1173.592651 418.894684 1178.58606 416.18399 L 1178.58606 442.291992 C 1175.161987 444.289337 1171.381348 445.894318 1167.244019 447.106995 C 1163.106689 448.319672 1158.327393 448.925995 1152.906006 448.925995 Z M 1051.041992 332.296021 L 1083.569946 332.296021 L 1083.569946 447 L 1051.041992 447 Z M 1050.186035 290.779999 L 1084.426025 290.779999 L 1084.426025 319.669983 L 1050.186035 319.669983 Z M 954.314026 449.140015 C 941.901917 449.140015 932.307678 445.359375 925.531006 437.798004 C 918.754272 430.236633 915.366028 419.822083 915.366028 406.554016 L 915.366028 332.296021 L 947.893982 332.296021 L 947.893982 396.281982 C 947.893982 403.986023 949.605957 409.799652 953.030029 413.722992 C 956.454041 417.646362 961.304626 419.608002 967.58197 419.608002 C 973.859375 419.608002 978.816956 417.646362 982.455017 413.722992 C 986.093018 409.799652 987.911987 403.986023 987.911987 396.281982 L 987.911987 332.296021 L 1020.440002 332.296021 L 1020.440002 447 L 987.911987 447 L 987.911987 430.735992 C 986.057312 433.161346 984.024353 435.479645 981.812988 437.69101 C 979.601685 439.902344 977.140686 441.863983 974.429993 443.575989 C 971.719299 445.288025 968.723328 446.643341 965.442017 447.641998 C 962.160645 448.640686 958.451355 449.140015 954.314026 449.140015 Z M 826.77002 332.296021 L 859.297974 332.296021 L 859.297974 355.40802 C 862.579346 347.561279 867.073303 341.284027 872.780029 336.575989 C 878.486694 331.867981 886.190613 329.727997 895.892029 330.156006 L 895.892029 364.182007 L 894.179993 364.182007 C 883.33728 364.182007 874.813049 367.463318 868.606995 374.026001 C 862.40094 380.588684 859.297974 390.789246 859.297974 404.627991 L 859.297974 447 L 826.77002 447 Z M 758.718018 449.567993 C 750.157959 449.567993 742.204346 447.998688 734.856995 444.859985 C 727.509644 441.721313 721.196716 437.47702 715.91803 432.127014 C 710.639282 426.776978 706.502014 420.499695 703.505981 413.294983 C 700.51001 406.090302 699.012024 398.422058 699.012024 390.290009 L 699.012024 389.862 C 699.012024 381.72995 700.51001 374.026031 703.505981 366.75 C 706.502014 359.473969 710.639282 353.125366 715.91803 347.703979 C 721.196716 342.282654 727.509644 338.002686 734.856995 334.864014 C 742.204346 331.725311 750.300598 330.156006 759.145996 330.156006 C 769.988708 330.156006 778.976624 331.867981 786.109985 335.291992 C 793.243347 338.716003 799.52063 343.42395 804.942017 349.416016 L 785.039978 370.81601 C 781.330627 366.963989 777.514343 363.896667 773.591003 361.614014 C 769.667664 359.331329 764.781372 358.190002 758.932007 358.190002 C 754.794617 358.190002 751.049683 359.010315 747.697021 360.651001 C 744.344299 362.291687 741.419678 364.538635 738.922974 367.391998 C 736.426331 370.245361 734.500366 373.562317 733.14502 377.343018 C 731.789673 381.123688 731.112 385.153992 731.112 389.43399 L 731.112 389.862 C 731.112 394.284698 731.789673 398.421997 733.14502 402.273987 C 734.500366 406.126038 736.461975 409.478638 739.030029 412.332001 C 741.598022 415.185364 744.665344 417.432312 748.231995 419.072998 C 751.798706 420.713684 755.793335 421.533997 760.216003 421.533997 C 765.63739 421.533997 770.380981 420.428345 774.447021 418.21701 C 778.513 416.005646 782.543335 413.045349 786.538025 409.335999 L 805.583984 428.596008 C 800.019958 434.730713 793.671387 439.759644 786.538025 443.682983 C 779.404602 447.606354 770.131409 449.567993 758.718018 449.567993 Z M 648.721985 380.660004 C 647.723328 373.383972 645.155334 367.499023 641.018005 363.005005 C 636.880676 358.510986 631.388062 356.264008 624.539978 356.264008 C 617.691956 356.264008 612.163696 358.475311 607.955017 362.89801 C 603.746338 367.320679 601 373.241302 599.716003 380.660004 Z M 627.75 449.567993 C 619.189941 449.567993 611.236389 448.141357 603.888977 445.287994 C 596.541626 442.434662 590.193054 438.368683 584.843018 433.089996 C 579.492981 427.81131 575.320007 421.569702 572.323975 414.36499 C 569.328003 407.160278 567.830017 399.135376 567.830017 390.290009 L 567.830017 389.862 C 567.830017 381.72995 569.221008 374.026031 572.002991 366.75 C 574.785034 359.473969 578.672668 353.125366 583.666016 347.703979 C 588.659363 342.282654 594.615662 338.002686 601.534973 334.864014 C 608.454346 331.725311 616.12262 330.156006 624.539978 330.156006 C 634.098694 330.156006 642.373291 331.867981 649.364014 335.291992 C 656.354675 338.716003 662.168335 343.316956 666.804993 349.095001 C 671.441711 354.873047 674.865662 361.506958 677.077026 368.997009 C 679.28833 376.48703 680.393982 384.297974 680.393982 392.429993 C 680.393982 393.713989 680.358337 395.069336 680.286987 396.496002 C 680.215637 397.922668 680.108643 399.420654 679.966003 400.98999 L 600.143982 400.98999 C 601.713318 408.408691 604.958984 414.008301 609.880981 417.789001 C 614.80304 421.569702 620.901978 423.459991 628.177979 423.459991 C 633.599365 423.459991 638.449951 422.532684 642.72998 420.678009 C 647.01001 418.823334 651.432617 415.827362 655.997986 411.690002 L 674.616028 428.167999 C 669.194641 434.873352 662.632019 440.116302 654.927979 443.897003 C 647.223938 447.677673 638.164734 449.567993 627.75 449.567993 Z M 488.436005 369.959991 C 496.568054 369.959991 502.809631 368.034027 507.161011 364.182007 C 511.51236 360.329987 513.687988 355.194031 513.687988 348.773987 L 513.687988 348.346008 C 513.687988 341.212646 511.405365 335.862671 506.839996 332.296021 C 502.274658 328.729309 495.926056 326.945984 487.794006 326.945984 L 455.052002 326.945984 L 455.052002 369.959991 Z M 422.096008 297.200012 L 490.575989 297.200012 C 509.550751 297.200012 524.102661 302.264618 534.231995 312.393982 C 542.792053 320.954041 547.072021 332.367249 547.072021 346.634003 L 547.072021 347.062012 C 547.072021 359.188721 544.111694 369.068298 538.19104 376.700989 C 532.270264 384.33371 524.530701 389.933319 514.971985 393.5 L 551.56604 447 L 513.046021 447 L 480.946014 399.063995 L 480.518005 399.063995 L 455.052002 399.063995 L 455.052002 447 L 422.096008 447 Z M 287.48999 297.200012 L 320.446014 297.200012 L 320.446014 447 L 287.48999 447 Z M 202.960007 384.298004 L 183.057999 335.720001 L 163.156006 384.298004 Z M 168.291992 296.130005 L 198.679993 296.130005 L 262.880005 447 L 228.425995 447 L 214.729996 413.402008 L 151.386002 413.402008 L 137.690002 447 L 104.091995 447 Z"/>
</svg>
